<svg width="153" height="154" viewBox="0 0 153 154" fill="none" xmlns="http://www.w3.org/2000/svg">
<path opacity="0.5" d="M103.127 135.903C121.638 135.903 136.645 120.799 136.645 102.167C136.645 83.5342 121.638 68.4297 103.127 68.4297C84.6158 68.4297 69.6094 83.5342 69.6094 102.167C69.6094 120.799 84.6158 135.903 103.127 135.903Z" fill="#F2F2F2"/>
<path opacity="0.5" d="M60.8614 68.4295C68.4759 68.4295 74.6487 62.2164 74.6487 54.5521C74.6487 46.8879 68.4759 40.6748 60.8614 40.6748C53.247 40.6748 47.0742 46.8879 47.0742 54.5521C47.0742 62.2164 53.247 68.4295 60.8614 68.4295Z" fill="#F2F2F2"/>
<path d="M95.505 53.335V101.415H58.2188V59.9098L64.2228 53.335H95.505Z" fill="white" stroke="#828282" stroke-width="1.5"/>
<path d="M64.2563 52.585V60.0025H57.4688" stroke="#828282" stroke-width="1.5"/>
<path fill-rule="evenodd" clip-rule="evenodd" d="M68.985 72.9022L66.8778 71.0931L64.7706 72.9023L64.1191 72.1436L66.1102 70.434L64.1191 68.7245L64.7706 67.9658L66.8778 69.775L68.985 67.9659L69.6364 68.7246L67.6453 70.434L69.6364 72.1435L68.985 72.9022ZM83.6845 71.0931L85.7916 72.9022L86.4431 72.1435L84.452 70.434L86.4431 68.7246L85.7916 67.9659L83.6845 69.775L81.5772 67.9658L80.9258 68.7245L82.9169 70.434L80.9258 72.1436L81.5772 72.9023L83.6845 71.0931ZM76.7909 88.4999C73.2769 88.4947 69.8344 89.4829 67.3065 91.4443C67.0883 91.6136 66.7742 91.5739 66.605 91.3558C66.4357 91.1376 66.4753 90.8235 66.6935 90.6542C69.4331 88.5286 73.1061 87.4945 76.7924 87.4999C80.4798 87.5054 84.2286 88.5507 87.1299 90.6438C87.3539 90.8053 87.4044 91.1178 87.2429 91.3418C87.0813 91.5657 86.7688 91.6163 86.5448 91.4547C83.8399 89.5033 80.3038 88.5051 76.7909 88.4999Z" fill="#828282"/>
</svg>
