<svg width="90" height="90" viewBox="0 0 90 90" fill="none" xmlns="http://www.w3.org/2000/svg">
<circle cx="45" cy="45" r="45" fill="#333333"/>
<path d="M44.9997 46.0003C40.773 46.0003 37.333 42.5603 37.333 38.3337C37.333 34.107 40.773 30.667 44.9997 30.667C49.2263 30.667 52.6663 34.107 52.6663 38.3337C52.6663 42.5603 49.2263 46.0003 44.9997 46.0003ZM44.9997 32.667C41.8797 32.667 39.333 35.2137 39.333 38.3337C39.333 41.4537 41.8797 44.0003 44.9997 44.0003C48.1197 44.0003 50.6663 41.4537 50.6663 38.3337C50.6663 35.2137 48.1197 32.667 44.9997 32.667Z" fill="#F2F2F2"/>
<path d="M56.4535 59.3333C55.9068 59.3333 55.4535 58.88 55.4535 58.3333C55.4535 53.7333 50.7603 50 45.0003 50C39.2402 50 34.5469 53.7333 34.5469 58.3333C34.5469 58.88 34.0935 59.3333 33.5469 59.3333C33.0002 59.3333 32.5469 58.88 32.5469 58.3333C32.5469 52.64 38.1335 48 45.0003 48C51.8669 48 57.4535 52.64 57.4535 58.3333C57.4535 58.88 57.0001 59.3333 56.4535 59.3333Z" fill="#F2F2F2"/>
</svg>
