<svg width="24" height="24" viewBox="0 0 24 24" fill="none" xmlns="http://www.w3.org/2000/svg">
<path d="M5.19086 6.37945C5.00086 6.37945 4.80086 6.29945 4.66086 6.15945C4.37086 5.86945 4.37086 5.38945 4.66086 5.09945L8.29086 1.46945C8.58086 1.17945 9.06086 1.17945 9.35086 1.46945C9.64086 1.75945 9.64086 2.23945 9.35086 2.52945L5.72086 6.15945C5.57086 6.29945 5.38086 6.37945 5.19086 6.37945Z" fill="white"/>
<path d="M18.8091 6.37945C18.6191 6.37945 18.4291 6.30945 18.2791 6.15945L14.6491 2.52945C14.3591 2.23945 14.3591 1.75945 14.6491 1.46945C14.9391 1.17945 15.4191 1.17945 15.7091 1.46945L19.3391 5.09945C19.6291 5.38945 19.6291 5.86945 19.3391 6.15945C19.1991 6.29945 18.9991 6.37945 18.8091 6.37945Z" fill="white"/>
<path d="M20.21 10.6006C20.14 10.6006 20.07 10.6006 20 10.6006H19.77H4C3.3 10.6106 2.5 10.6106 1.92 10.0306C1.46 9.58059 1.25 8.88059 1.25 7.85059C1.25 5.10059 3.26 5.10059 4.22 5.10059H19.78C20.74 5.10059 22.75 5.10059 22.75 7.85059C22.75 8.89059 22.54 9.58059 22.08 10.0306C21.56 10.5506 20.86 10.6006 20.21 10.6006ZM4.22 9.10059H20.01C20.46 9.11059 20.88 9.11059 21.02 8.97059C21.09 8.90059 21.24 8.66059 21.24 7.85059C21.24 6.72059 20.96 6.60059 19.77 6.60059H4.22C3.03 6.60059 2.75 6.72059 2.75 7.85059C2.75 8.66059 2.91 8.90059 2.97 8.97059C3.11 9.10059 3.54 9.10059 3.98 9.10059H4.22Z" fill="white"/>
<path d="M9.75977 18.3C9.34977 18.3 9.00977 17.96 9.00977 17.55V14C9.00977 13.59 9.34977 13.25 9.75977 13.25C10.1698 13.25 10.5098 13.59 10.5098 14V17.55C10.5098 17.97 10.1698 18.3 9.75977 18.3Z" fill="white"/>
<path d="M14.3594 18.3C13.9494 18.3 13.6094 17.96 13.6094 17.55V14C13.6094 13.59 13.9494 13.25 14.3594 13.25C14.7694 13.25 15.1094 13.59 15.1094 14V17.55C15.1094 17.97 14.7694 18.3 14.3594 18.3Z" fill="white"/>
<path d="M14.8907 22.7498H8.86073C5.28073 22.7498 4.48073 20.6198 4.17073 18.7698L2.76073 10.1198C2.69073 9.70975 2.97073 9.32975 3.38073 9.25975C3.79073 9.18975 4.17073 9.46975 4.24073 9.87975L5.65073 18.5198C5.94073 20.2898 6.54073 21.2498 8.86073 21.2498H14.8907C17.4607 21.2498 17.7507 20.3498 18.0807 18.6098L19.7607 9.85975C19.8407 9.44975 20.2307 9.17975 20.6407 9.26975C21.0507 9.34975 21.3107 9.73975 21.2307 10.1498L19.5507 18.8998C19.1607 20.9298 18.5107 22.7498 14.8907 22.7498Z" fill="white"/>
</svg>
