<svg width="24" height="24" viewBox="0 0 24 24" fill="none" xmlns="http://www.w3.org/2000/svg">
<path d="M12.001 22.7198C9.33104 22.7198 6.65103 21.7599 4.62103 19.8299C2.49103 17.8099 1.29104 15.0898 1.25104 12.1698C1.21104 9.23984 2.33103 6.48984 4.40103 4.41984C8.59103 0.229845 15.411 0.229845 19.601 4.41984C21.671 6.48984 22.791 9.23984 22.751 12.1698C22.711 15.0998 21.511 17.8199 19.381 19.8299C17.351 21.7599 14.671 22.7198 12.001 22.7198ZM12.001 2.77989C9.63104 2.77989 7.26103 3.67984 5.46103 5.47984C3.68103 7.25984 2.72104 9.62988 2.75104 12.1499C2.78104 14.6699 3.81103 17.0099 5.65103 18.7399C9.15103 22.0599 14.851 22.0499 18.351 18.7399C20.181 17.0099 21.211 14.6599 21.251 12.1499C21.291 9.63988 20.321 7.25984 18.541 5.47984C16.741 3.67984 14.371 2.77989 12.001 2.77989Z" fill="#292D32"/>
<path d="M14.1778 15C13.9688 15 13.7599 14.923 13.5949 14.7581L9.23923 10.4045C8.92026 10.0857 8.92026 9.55795 9.23923 9.23912C9.5582 8.92029 10.0862 8.92029 10.4052 9.23912L14.7608 13.5928C15.0797 13.9116 15.0797 14.4393 14.7608 14.7581C14.5958 14.912 14.3868 15 14.1778 15Z" fill="#292D32"/>
<path d="M9.82217 15C9.61319 15 9.40421 14.923 9.23923 14.7581C8.92026 14.4393 8.92026 13.9116 9.23923 13.5928L13.5949 9.23912C13.9139 8.92029 14.4418 8.92029 14.7608 9.23912C15.0797 9.55795 15.0797 10.0857 14.7608 10.4045L10.4052 14.7581C10.2402 14.923 10.0312 15 9.82217 15Z" fill="#292D32"/>
</svg>
