<svg width="15" height="15" viewBox="0 0 15 15" fill="none" xmlns="http://www.w3.org/2000/svg">
<path d="M7.5 9.21875C7.24375 9.21875 7.03125 9.00625 7.03125 8.75V5.625C7.03125 5.36875 7.24375 5.15625 7.5 5.15625C7.75625 5.15625 7.96875 5.36875 7.96875 5.625V8.75C7.96875 9.00625 7.75625 9.21875 7.5 9.21875Z" fill="#4F4F4F"/>
<path d="M7.5 11.2496C7.4625 11.2496 7.41875 11.2434 7.375 11.2371C7.3375 11.2309 7.3 11.2184 7.2625 11.1996C7.225 11.1871 7.1875 11.1684 7.15 11.1434C7.11875 11.1184 7.0875 11.0934 7.05625 11.0684C6.94375 10.9496 6.875 10.7871 6.875 10.6246C6.875 10.4621 6.94375 10.2996 7.05625 10.1809C7.0875 10.1559 7.11875 10.1309 7.15 10.1059C7.1875 10.0809 7.225 10.0621 7.2625 10.0496C7.3 10.0309 7.3375 10.0184 7.375 10.0121C7.45625 9.99336 7.54375 9.99336 7.61875 10.0121C7.6625 10.0184 7.7 10.0309 7.7375 10.0496C7.775 10.0621 7.8125 10.0809 7.85 10.1059C7.88125 10.1309 7.9125 10.1559 7.94375 10.1809C8.05625 10.2996 8.125 10.4621 8.125 10.6246C8.125 10.7871 8.05625 10.9496 7.94375 11.0684C7.9125 11.0934 7.88125 11.1184 7.85 11.1434C7.8125 11.1684 7.775 11.1871 7.7375 11.1996C7.7 11.2184 7.6625 11.2309 7.61875 11.2371C7.58125 11.2434 7.5375 11.2496 7.5 11.2496Z" fill="#4F4F4F"/>
<path d="M11.2878 13.8504H3.71279C2.49404 13.8504 1.56279 13.4066 1.08779 12.6066C0.619042 11.8066 0.681539 10.7754 1.27529 9.70665L5.06279 2.89414C5.68779 1.76914 6.55031 1.15039 7.50031 1.15039C8.45031 1.15039 9.31281 1.76914 9.93781 2.89414L13.7253 9.7129C14.3191 10.7816 14.3878 11.8066 13.9128 12.6129C13.4378 13.4066 12.5066 13.8504 11.2878 13.8504ZM7.50031 2.08789C6.91281 2.08789 6.33781 2.53789 5.88154 3.35039L2.10029 10.1691C1.67529 10.9316 1.60654 11.6316 1.90029 12.1379C2.19404 12.6441 2.84404 12.9191 3.71904 12.9191H11.2941C12.1691 12.9191 12.8128 12.6441 13.1128 12.1379C13.4128 11.6316 13.3378 10.9379 12.9128 10.1691L9.11906 3.35039C8.66281 2.53789 8.08781 2.08789 7.50031 2.08789Z" fill="#4F4F4F"/>
</svg>
