<svg width="38" height="38" viewBox="0 0 38 38" fill="none" xmlns="http://www.w3.org/2000/svg">
<g opacity="0.5">
<path d="M18.9998 36.0212C9.61067 36.0212 1.979 28.3895 1.979 19.0003C1.979 9.61116 9.61067 1.97949 18.9998 1.97949C28.389 1.97949 36.0207 9.61116 36.0207 19.0003C36.0207 28.3895 28.389 36.0212 18.9998 36.0212ZM18.9998 4.35449C10.9248 4.35449 4.354 10.9253 4.354 19.0003C4.354 27.0753 10.9248 33.6462 18.9998 33.6462C27.0748 33.6462 33.6457 27.0753 33.6457 19.0003C33.6457 10.9253 27.0748 4.35449 18.9998 4.35449Z" fill="#F2F2F2"/>
<path d="M18.9998 4.35449C10.9248 4.35449 4.354 10.9253 4.354 19.0003C4.354 27.0753 10.9248 33.6462 18.9998 33.6462C27.0748 33.6462 33.6457 27.0753 33.6457 19.0003C33.6457 10.9253 27.0748 4.35449 18.9998 4.35449Z" fill="#F2F2F2"/>
</g>
<g clip-path="url(#clip0_228_12626)">
<path fill-rule="evenodd" clip-rule="evenodd" d="M25.447 13.5H23.4223C23.2707 12.7241 22.8696 12.0269 22.2867 11.526C21.7037 11.0251 20.9745 10.751 20.222 10.75H18.9157C18.1632 10.751 17.434 11.0251 16.851 11.526C16.2681 12.0269 15.867 12.7241 15.7154 13.5H13.6907C13.5175 13.5 13.3514 13.5724 13.2289 13.7014C13.1064 13.8303 13.0376 14.0052 13.0376 14.1875C13.0376 14.3698 13.1064 14.5447 13.2289 14.6736C13.3514 14.8026 13.5175 14.875 13.6907 14.875H14.3438V23.8125C14.3449 24.7238 14.6893 25.5976 15.3015 26.242C15.9137 26.8864 16.7437 27.2489 17.6095 27.25H21.5282C22.394 27.2489 23.224 26.8864 23.8362 26.242C24.4484 25.5976 24.7928 24.7238 24.7939 23.8125V14.875H25.447C25.6202 14.875 25.7863 14.8026 25.9088 14.6736C26.0313 14.5447 26.1001 14.3698 26.1001 14.1875C26.1001 14.0052 26.0313 13.8303 25.9088 13.7014C25.7863 13.5724 25.6202 13.5 25.447 13.5ZM18.9157 12.125H20.222C20.6271 12.1255 21.0221 12.2579 21.3529 12.5041C21.6837 12.7503 21.9341 13.0982 22.0697 13.5H17.068C17.2036 13.0982 17.454 12.7503 17.7848 12.5041C18.1156 12.2579 18.5106 12.1255 18.9157 12.125ZM23.4876 23.8125C23.4876 24.3595 23.2812 24.8841 22.9137 25.2709C22.5463 25.6577 22.0479 25.875 21.5282 25.875H17.6095C17.0898 25.875 16.5914 25.6577 16.224 25.2709C15.8565 24.8841 15.6501 24.3595 15.6501 23.8125V14.875H23.4876V23.8125ZM18.262 23.1236C18.4352 23.1236 18.6013 23.0512 18.7238 22.9223C18.8463 22.7933 18.9151 22.6185 18.9151 22.4361V18.3111C18.9151 18.1288 18.8463 17.9539 18.7238 17.825C18.6013 17.6961 18.4352 17.6236 18.262 17.6236C18.0888 17.6236 17.9226 17.6961 17.8002 17.825C17.6777 17.9539 17.6089 18.1288 17.6089 18.3111V22.4361C17.6089 22.6185 17.6777 22.7933 17.8002 22.9223C17.9226 23.0512 18.0888 23.1236 18.262 23.1236ZM21.3375 22.9223C21.215 23.0512 21.0489 23.1236 20.8757 23.1236C20.7025 23.1236 20.5364 23.0512 20.4139 22.9223C20.2914 22.7933 20.2226 22.6185 20.2226 22.4361V18.3111C20.2226 18.1288 20.2914 17.9539 20.4139 17.825C20.5364 17.6961 20.7025 17.6236 20.8757 17.6236C21.0489 17.6236 21.215 17.6961 21.3375 17.825C21.46 17.9539 21.5288 18.1288 21.5288 18.3111V22.4361C21.5288 22.6185 21.46 22.7933 21.3375 22.9223Z" fill="#E91D4E"/>
</g>
<defs>
<clipPath id="clip0_228_12626">
<rect width="18" height="18" fill="white" transform="translate(10 10)"/>
</clipPath>
</defs>
</svg>
