<svg width="24" height="24" viewBox="0 0 24 24" fill="none" xmlns="http://www.w3.org/2000/svg">
<path d="M7.48047 5.64954L10.5805 3.24954C10.9805 2.84954 11.8805 2.64954 12.4805 2.64954H16.2805C17.4805 2.64954 18.7805 3.54954 19.0805 4.74954L21.4805 12.0495C21.9805 13.4495 21.0805 14.6495 19.5805 14.6495H15.5805C14.9805 14.6495 14.4805 15.1495 14.5805 15.8495L15.0805 19.0495C15.2805 19.9495 14.6805 20.9495 13.7805 21.2495C12.9805 21.5495 11.9805 21.1495 11.5805 20.5495L7.48047 14.4495" stroke="#292D32" stroke-width="1.5" stroke-miterlimit="10"/>
<path d="M2.38086 5.64961V15.4496C2.38086 16.8496 2.98086 17.3496 4.38086 17.3496H5.38086C6.78086 17.3496 7.38086 16.8496 7.38086 15.4496V5.64961C7.38086 4.24961 6.78086 3.74961 5.38086 3.74961H4.38086C2.98086 3.74961 2.38086 4.24961 2.38086 5.64961Z" stroke="#292D32" stroke-width="1.5" stroke-linecap="round" stroke-linejoin="round"/>
</svg>
