<svg width="20" height="20" viewBox="0 0 20 20" fill="none" xmlns="http://www.w3.org/2000/svg">
<path d="M9.99992 13.6083C8.00827 13.6083 6.3916 11.9916 6.3916 9.99992C6.3916 8.00827 8.00827 6.3916 9.99992 6.3916C11.9916 6.3916 13.6083 8.00827 13.6083 9.99992C13.6083 11.9916 11.9916 13.6083 9.99992 13.6083ZM9.99992 7.6416C8.69992 7.6416 7.6416 8.69992 7.6416 9.99992C7.6416 11.2999 8.69992 12.3583 9.99992 12.3583C11.2999 12.3583 12.3583 11.2999 12.3583 9.99992C12.3583 8.69992 11.2999 7.6416 9.99992 7.6416Z" fill="#BDBDBD"/>
<path d="M10.0001 17.5167C6.86675 17.5167 3.90842 15.6834 1.87509 12.5001C0.991752 11.1251 0.991752 8.88341 1.87509 7.50006C3.91675 4.31673 6.87509 2.4834 10.0001 2.4834C13.1251 2.4834 16.0834 4.31673 18.1168 7.50006C19.0001 8.87508 19.0001 11.1167 18.1168 12.5001C16.0834 15.6834 13.1251 17.5167 10.0001 17.5167ZM10.0001 3.7334C7.30842 3.7334 4.73342 5.35007 2.93342 8.17507C2.30842 9.15008 2.30842 10.8501 2.93342 11.8251C4.73342 14.6501 7.30842 16.2667 10.0001 16.2667C12.6918 16.2667 15.2668 14.6501 17.0668 11.8251C17.6918 10.8501 17.6918 9.15008 17.0668 8.17507C15.2668 5.35007 12.6918 3.7334 10.0001 3.7334Z" fill="#BDBDBD"/>
</svg>
