<svg width="25" height="25" viewBox="0 0 25 25" fill="none" xmlns="http://www.w3.org/2000/svg">
<path d="M22.831 14.2373L22.8312 14.2378C22.8367 14.258 22.8422 14.2784 22.8478 14.2988C22.916 14.5494 22.987 14.8102 23.0294 15.0479C23.0742 15.2992 23.0932 15.5539 23.0228 15.7542M22.831 14.2373L22.8809 15.7055M22.831 14.2373C22.8269 14.2221 22.8227 14.2068 22.8184 14.1915C22.673 13.663 22.5154 13.0907 22.5279 12.5032L22.5279 12.5032V12.5C22.5279 11.8931 22.6894 11.302 22.8378 10.7627L22.8379 10.7622L22.8417 10.7482C22.9138 10.4827 22.9894 10.2043 23.0337 9.9516C23.0778 9.69963 23.0962 9.44609 23.0299 9.2471C22.9572 9.02914 22.7813 8.82177 22.5809 8.63164C22.3775 8.4386 22.1299 8.24619 21.8931 8.06275L21.8744 8.04816C21.422 7.69562 20.9763 7.34828 20.6262 6.8899L20.626 6.88966C20.2649 6.41897 20.0504 5.88819 19.8348 5.34933L19.8346 5.34876C19.826 5.32749 19.8174 5.3062 19.8088 5.2849C19.7046 5.02704 19.6002 4.76877 19.4849 4.54706C19.3613 4.30924 19.2151 4.09283 19.0233 3.96072C18.83 3.82658 18.5688 3.75716 18.2913 3.71519C18.0111 3.67281 17.6933 3.65578 17.3764 3.6391L17.3754 3.63905C16.7837 3.61216 16.1921 3.57881 15.6164 3.39769L15.6163 3.39766C15.0608 3.22328 14.5738 2.91895 14.0884 2.61556L14.0881 2.61538L14.0796 2.61012C13.8092 2.44195 13.5387 2.27371 13.2809 2.14777C13.0216 2.02116 12.7589 1.92886 12.5067 1.92886C12.2515 1.92886 11.9872 2.02094 11.7275 2.14777C11.4666 2.27518 11.1948 2.44573 10.9246 2.61582L10.9238 2.61635C10.4409 2.92485 9.95319 3.22296 9.39783 3.39744C8.82298 3.57172 8.2329 3.60524 7.6419 3.63882L7.63705 3.6391C7.63692 3.6391 7.6368 3.63911 7.63667 3.63912C7.31663 3.65579 6.99724 3.67282 6.71711 3.71519C6.4399 3.75711 6.17971 3.82653 5.9892 3.96138C5.80153 4.09325 5.65557 4.30905 5.53117 4.54668C5.40886 4.78035 5.29803 5.05422 5.18785 5.32646L5.17884 5.34873C5.17499 5.35825 5.17113 5.36778 5.16727 5.3773C4.95511 5.90122 4.74201 6.42743 4.38743 6.88966L4.38705 6.89015C4.04094 7.34522 3.58466 7.70085 3.12853 8.05636L3.12138 8.06194C3.12114 8.06212 3.1209 8.06231 3.12065 8.06249C2.8836 8.24279 2.6362 8.43331 2.43271 8.62554C2.23255 8.81463 2.05689 9.02155 1.98395 9.23906C1.91346 9.43944 1.93246 9.69408 1.97731 9.94538C2.01973 10.1831 2.09074 10.444 2.15894 10.6945C2.16449 10.7149 2.17003 10.7353 2.17553 10.7555L2.17566 10.756C2.32397 11.2953 2.48547 11.8864 2.48547 12.4933C2.48547 13.1002 2.32397 13.6913 2.17565 14.2306L2.17541 14.2315L2.16773 14.2601C2.09683 14.5243 2.02314 14.7988 1.97972 15.0476C1.93563 15.3003 1.91718 15.5539 1.98351 15.7529L1.98378 15.7537C2.05662 15.9682 2.23268 16.1738 2.43271 16.3627C2.636 16.5548 2.88349 16.7471 3.12032 16.9305L3.12107 16.9311C3.57794 17.2805 4.03208 17.6385 4.38724 18.1034L4.38743 18.1036C4.74201 18.5659 4.95511 19.0921 5.16727 19.616L5.17883 19.6445L5.17884 19.6446L5.18767 19.6664C5.29789 19.9387 5.40887 20.213 5.53221 20.447C5.65772 20.6851 5.80572 20.9012 5.99738 21.0329C6.18756 21.1637 6.44723 21.2313 6.72336 21.2723C7.00249 21.3138 7.32011 21.3308 7.63697 21.3475L7.63804 21.3475C8.22966 21.3744 8.82134 21.4078 9.39705 21.5889L9.39713 21.5889C9.95258 21.7633 10.4396 22.0676 10.9251 22.371L10.9253 22.3712L10.9339 22.3765C11.2042 22.5447 11.4747 22.7129 11.7326 22.8388C11.9918 22.9654 12.2546 23.0577 12.5067 23.0577C12.7589 23.0577 13.0216 22.9654 13.2809 22.8388C13.5387 22.7129 13.8092 22.5447 14.0796 22.3765L14.0881 22.3712L14.0884 22.371C14.5723 22.0686 15.0599 21.7704 15.6156 21.5958C16.1904 21.4216 16.7805 21.3881 17.3714 21.3545L17.3764 21.3542L17.3771 21.3542L17.422 21.3518C17.723 21.336 18.0239 21.3202 18.2896 21.2816C18.5654 21.2414 18.8259 21.174 19.0169 21.0391C19.2081 20.9072 19.3559 20.6915 19.4812 20.4537C19.6045 20.2197 19.7155 19.9455 19.8257 19.6731L19.8346 19.6512L19.8346 19.6512L19.8354 19.6492C20.0431 19.1132 20.2648 18.5809 20.6198 18.1096C20.9699 17.6515 21.4155 17.3042 21.8677 16.9518L21.8864 16.9373M22.831 14.2373L21.8864 16.9373M23.0228 15.7542C23.0226 15.7547 23.0224 15.7551 23.0223 15.7556L22.8809 15.7055M23.0228 15.7542C23.0229 15.7538 23.023 15.7533 23.0232 15.7529L22.8809 15.7055M23.0228 15.7542C22.9498 15.9717 22.7742 16.1786 22.5742 16.3684C22.3709 16.5613 22.1234 16.7536 21.8867 16.937M22.8809 15.7055C22.7602 16.0676 22.2706 16.4498 21.7945 16.8187M21.8867 16.937L21.7945 16.8187M21.8867 16.937C21.8866 16.9371 21.8865 16.9372 21.8864 16.9373M21.8867 16.937L21.8864 16.9373M21.7945 16.8187L21.8864 16.9373M21.7945 16.8187L21.8864 16.9373M24.7103 8.67166L24.7105 8.67229C25.0084 9.54704 24.7704 10.4203 24.547 11.2392C24.4211 11.6831 24.3001 12.1266 24.3001 12.5C24.3001 12.8666 24.4211 13.3166 24.547 13.7608C24.7704 14.5797 25.0084 15.453 24.7105 16.3277L24.7104 16.328C24.4052 17.2309 23.6664 17.8089 22.9768 18.3431L22.9763 18.3435L22.9714 18.3473C22.6101 18.6298 22.2525 18.9093 22.0381 19.1879C21.8146 19.4763 21.646 19.901 21.4812 20.3164L21.481 20.3169C21.4809 20.3171 21.4809 20.3172 21.4808 20.3173C21.1633 21.1079 20.8216 21.9556 20.0325 22.5028L20.0325 22.5029C19.2614 23.0381 18.3263 23.0929 17.461 23.1402L17.4608 23.1402C16.9843 23.1667 16.5083 23.1937 16.1385 23.3072C15.8122 23.4027 15.4477 23.6293 15.0884 23.8527C15.0665 23.8663 15.0446 23.8799 15.0228 23.8935L15.0225 23.8937C14.2866 24.3528 13.4835 24.85 12.5 24.85C11.5164 24.85 10.7197 24.3593 9.97778 23.8939L9.97718 23.8935L9.97389 23.8914C9.59179 23.6543 9.20635 23.415 8.86331 23.3078C8.49951 23.1937 8.0155 23.1667 7.53917 23.1402L7.53898 23.1402C6.6671 23.0929 5.73861 23.0382 4.96752 22.5029L4.96747 22.5028C4.17834 21.9555 3.83664 21.1076 3.51903 20.3169L3.51849 20.3156C3.50855 20.2915 3.49861 20.2674 3.48866 20.2433C3.32774 19.8525 3.16623 19.4603 2.96336 19.1898C2.74735 18.9018 2.387 18.6209 2.02289 18.3428C1.33334 17.8088 0.594796 17.2308 0.289643 16.328L0.147542 16.3761L0.289639 16.328C-0.0085085 15.4463 0.22976 14.5725 0.452959 13.7608C0.578858 13.3169 0.699902 12.8734 0.699902 12.5C0.699902 12.1266 0.578894 11.6833 0.453014 11.2394C0.229666 10.4204 -0.00841511 9.54712 0.289533 8.67229L0.289643 8.67196C0.59484 7.76909 1.33355 7.19108 2.02319 6.65695L2.02373 6.65653L2.02858 6.65273C2.39003 6.37015 2.74764 6.09057 2.96206 5.81193C3.18551 5.52352 3.35402 5.09888 3.5188 4.68363L3.51903 4.68306C3.51907 4.68295 3.51912 4.68283 3.51916 4.68272C3.83683 3.89194 4.1784 3.04479 4.96679 2.50436L4.96752 2.50385C5.73858 1.96857 6.67368 1.91384 7.53904 1.86651L7.53917 1.86651C8.01613 1.84001 8.49259 1.81298 8.86252 1.69916L8.86315 1.69897C9.18724 1.59769 9.54987 1.3722 9.90907 1.14884C9.93179 1.13472 9.9545 1.1206 9.97718 1.10652L9.97747 1.10634C10.7134 0.647225 11.5165 0.15 12.5 0.15C13.4777 0.15 14.2767 0.64118 15.0097 1.09175L15.0228 1.09982L15.0234 1.10016L15.0261 1.10188C15.4083 1.33908 15.7938 1.57834 16.1369 1.68556L16.1375 1.68575C16.5074 1.79957 16.9839 1.8266 17.4608 1.8531L17.461 1.85311C18.3329 1.90042 19.2614 1.95514 20.0325 2.49044L20.0325 2.49048C20.8217 3.03778 21.1634 3.88569 21.481 4.67636L21.4815 4.67766C21.4915 4.70177 21.5014 4.7259 21.5113 4.75005C21.6723 5.14082 21.8338 5.53301 22.0366 5.80352C22.2526 6.09147 22.6128 6.37229 22.9769 6.65028C22.9771 6.65048 22.9774 6.65067 22.9776 6.65087L23.0006 6.66892C23.6843 7.20502 24.4086 7.77303 24.7103 8.67166Z" fill="#4F4F4F" stroke="white" stroke-width="0.3"/>
<path d="M12.1952 17.0709L12.1954 17.0709C14.8647 17.2089 17.0789 15.0776 17.0789 12.4423C17.0789 11.9765 17.4536 11.5978 17.9168 11.5978H17.9969C18.4213 11.5978 18.768 11.9445 18.768 12.3689C18.768 15.7803 15.9744 18.7017 12.5608 18.7669C9.03351 18.8321 6.13841 15.9892 6.11885 12.4816L5.96885 12.4824L6.11885 12.4816C6.0993 8.98263 9.02002 6.11777 12.5235 6.11777C12.948 6.11777 13.2946 6.46445 13.2946 6.8889V6.969C13.2946 7.43349 12.9146 7.81354 12.4501 7.81354C9.80844 7.81354 7.6767 10.0275 7.82151 12.6973C7.94575 15.0433 9.84918 16.9467 12.1952 17.0709Z" fill="#4F4F4F" stroke="white" stroke-width="0.3"/>
<path d="M12.0132 11.5062L12.0132 11.5061C11.698 11.1854 11.1863 11.1854 10.8713 11.5004C10.53 11.8417 10.5286 12.4012 10.8717 12.7505C10.8719 12.7507 10.872 12.7508 10.8721 12.751L11.5521 13.4309C12.0409 13.9197 12.8403 13.9197 13.3291 13.4309L17.0403 9.7197C17.3622 9.39782 17.3622 8.87871 17.0403 8.55682M12.0132 11.5062L17.0403 8.55682M12.0132 11.5062L12.0141 11.5071M12.0132 11.5062L12.0141 11.5071M17.0403 8.55682C16.6984 8.21491 16.1526 8.21491 15.8106 8.55682L12.5934 11.7741C12.5081 11.8594 12.3664 11.8594 12.2811 11.7741L12.0141 11.5071M17.0403 8.55682L12.0141 11.5071" fill="#BDBDBD" stroke="white" stroke-width="0.3"/>
</svg>
