<svg width="25" height="27" viewBox="0 0 25 27" fill="none" xmlns="http://www.w3.org/2000/svg">
<path d="M23.9609 5.79851L18.6751 0.616316C18.2756 0.220847 17.7429 0 17.1693 0H12.8976C10.9359 0 9.33789 1.60242 9.33789 3.5695C9.33789 4.47856 9.68106 5.31572 10.2445 5.94745C9.66057 6.60485 9.33789 7.44201 9.33789 8.3254V10.0459C9.40448 10.0459 9.47106 10.0459 9.53764 10.0459C9.96276 10.0459 10.3725 10.1024 10.7618 10.2103V8.32026C10.7618 7.75017 10.982 7.2109 11.3866 6.80515L11.3918 6.80002C11.8476 7.01573 12.3598 7.13386 12.8976 7.13386H15.1564C15.0795 7.35984 15.0334 7.59609 15.0334 7.84776C15.0334 9.02903 15.9912 9.98945 17.1693 9.98945C18.3473 9.98945 19.3051 9.02903 19.3051 7.84776C19.3051 6.66648 18.3473 5.70606 17.1693 5.70606H12.8976C12.7747 5.70606 12.6517 5.69579 12.5339 5.67524C12.5339 5.67524 16.6622 1.62297 16.6673 1.62297C16.8312 1.45861 17.031 1.42266 17.1693 1.42266C17.3075 1.42266 17.5073 1.45861 17.6712 1.62297L22.9519 6.80515C23.3514 7.2109 23.5767 7.74504 23.5767 8.32026V22.2285C23.5767 22.6239 23.2592 22.9424 22.8648 22.9424H17.0463C16.9234 23.3892 16.6724 23.8257 16.3702 24.1288C16.2934 24.2058 16.2063 24.2828 16.1141 24.3496C16.1141 24.3547 16.1141 24.365 16.1141 24.3702H22.8648C24.0428 24.3702 25.0006 23.4097 25.0006 22.2285V8.3254C25.0057 7.37011 24.6318 6.47645 23.9609 5.79851ZM17.1693 7.14413C17.5636 7.14413 17.8812 7.46256 17.8812 7.85803C17.8812 8.2535 17.5636 8.57193 17.1693 8.57193C16.7749 8.57193 16.4573 8.2535 16.4573 7.85803C16.4573 7.46256 16.7749 7.14413 17.1693 7.14413ZM11.2535 4.9408C10.9462 4.57101 10.7567 4.09336 10.7567 3.5695C10.7567 2.38822 11.7144 1.4278 12.8925 1.4278H14.8286L11.2535 4.9408Z" fill="#4F4F4F"/>
<path d="M16.0366 18.9669C16.2978 18.6742 16.4566 18.289 16.4566 17.8678C16.4566 16.9588 15.7191 16.2192 14.8125 16.2192H11.6164C11.934 15.2588 12.0672 13.9799 12.0672 13.4304V12.8808C12.0672 11.6687 11.0838 10.6826 9.875 10.6826H9.32695C9.07598 10.6826 8.85574 10.8521 8.79428 11.0986L8.49721 12.2953C8.07721 13.9748 6.75065 15.8289 5.37286 16.1627C5.13213 15.5515 4.53799 15.115 3.84141 15.115H0.548042C0.245851 15.115 0 15.3615 0 15.6645V25.5666C0 25.8697 0.245851 26.1162 0.548042 26.1162H3.84141C4.49702 26.1162 5.06042 25.731 5.32676 25.1763L7.21162 25.808C7.82624 26.0135 8.4716 26.1162 9.12208 26.1162H13.7164C14.623 26.1162 15.3605 25.3766 15.3605 24.4675C15.3605 24.2518 15.3196 24.0464 15.2427 23.8615C15.9393 23.6715 16.4566 23.0295 16.4566 22.2694C16.4566 21.8482 16.2978 21.463 16.0366 21.1703C16.2978 20.8775 16.4566 20.4923 16.4566 20.0712C16.4566 19.65 16.2978 19.2545 16.0366 18.9669ZM4.38946 24.4675C4.38946 24.7706 4.14361 25.0171 3.84141 25.0171H1.09608V16.2141H3.84141C4.14361 16.2141 4.38946 16.4606 4.38946 16.7636V24.4675ZM13.7164 19.5165H14.8125C15.1147 19.5165 15.3605 19.763 15.3605 20.066C15.3605 20.369 15.1147 20.6156 14.8125 20.6156H13.7164C13.4142 20.6156 13.1684 20.8621 13.1684 21.1651C13.1684 21.4681 13.4142 21.7147 13.7164 21.7147H14.8125C15.1147 21.7147 15.3605 21.9612 15.3605 22.2642C15.3605 22.5672 15.1147 22.8138 14.8125 22.8138H13.7164C13.4142 22.8138 13.1684 23.0603 13.1684 23.3633C13.1684 23.6663 13.4142 23.9129 13.7164 23.9129C14.0186 23.9129 14.2645 24.1594 14.2645 24.4624C14.2645 24.7654 14.0186 25.012 13.7164 25.012H9.11696C8.58428 25.012 8.06185 24.9246 7.55478 24.7603L5.48554 24.0669V17.2618C6.34602 17.0974 7.18601 16.553 7.94917 15.6594C8.69184 14.7863 9.2911 13.6255 9.55744 12.5624L9.75207 11.7817H9.86987C10.4743 11.7817 10.966 12.2748 10.966 12.8808V13.4304C10.966 14.1699 10.7355 15.5875 10.4384 16.2192H9.31671C9.01452 16.2192 8.76867 16.4657 8.76867 16.7687C8.76867 17.0718 9.01452 17.3183 9.31671 17.3183H14.8023C15.1044 17.3183 15.3503 17.5648 15.3503 17.8678C15.3503 18.1709 15.1044 18.4174 14.8023 18.4174H13.7062C13.404 18.4174 13.1581 18.6639 13.1581 18.9669C13.1632 19.2699 13.4091 19.5165 13.7164 19.5165Z" fill="#4F4F4F"/>
<path d="M19.8229 14.3087H14.5166C14.1222 14.3087 13.8047 13.9902 13.8047 13.5948V13.4561C13.8047 13.0606 14.1222 12.7422 14.5166 12.7422H19.8229C20.2173 12.7422 20.5348 13.0606 20.5348 13.4561V13.5948C20.5348 13.9902 20.2173 14.3087 19.8229 14.3087Z" fill="#828282"/>
</svg>
