<svg width="20" height="20" viewBox="0 0 20 20" fill="none" xmlns="http://www.w3.org/2000/svg">
<path d="M10.0003 18.0423C9.74199 18.0423 9.49199 18.009 9.28366 17.934C6.10033 16.8423 1.04199 12.9673 1.04199 7.24232C1.04199 4.32565 3.40033 1.95898 6.30033 1.95898C7.70866 1.95898 9.02533 2.50898 10.0003 3.49232C10.9753 2.50898 12.292 1.95898 13.7003 1.95898C16.6003 1.95898 18.9587 4.33398 18.9587 7.24232C18.9587 12.9756 13.9003 16.8423 10.717 17.934C10.5087 18.009 10.2587 18.0423 10.0003 18.0423ZM6.30033 3.20898C4.09199 3.20898 2.29199 5.01732 2.29199 7.24232C2.29199 12.934 7.76699 16.1006 9.69199 16.759C9.84199 16.809 10.167 16.809 10.317 16.759C12.2337 16.1006 17.717 12.9423 17.717 7.24232C17.717 5.01732 15.917 3.20898 13.7087 3.20898C12.442 3.20898 11.267 3.80065 10.5087 4.82565C10.2753 5.14232 9.74199 5.14232 9.50866 4.82565C8.73366 3.79232 7.56699 3.20898 6.30033 3.20898Z" fill="#DA0000"/>
<path d="M6.30033 3.20898C4.09199 3.20898 2.29199 5.01732 2.29199 7.24232C2.29199 12.934 7.76699 16.1006 9.69199 16.759C9.84199 16.809 10.167 16.809 10.317 16.759C12.2337 16.1006 17.717 12.9423 17.717 7.24232C17.717 5.01732 15.917 3.20898 13.7087 3.20898C12.442 3.20898 11.267 3.80065 10.5087 4.82565C10.2753 5.14232 9.74199 5.14232 9.50866 4.82565C8.73366 3.79232 7.56699 3.20898 6.30033 3.20898Z" fill="#DA0000"/>
</svg>
