<svg width="651" height="274" viewBox="0 0 651 274" fill="none" xmlns="http://www.w3.org/2000/svg">
<g clip-path="url(#clip0_55_3676)">
<path d="M408.196 49.9181C421.819 49.9181 432.863 38.8743 432.863 25.251C432.863 11.6278 421.819 0.583984 408.196 0.583984C394.573 0.583984 383.529 11.6278 383.529 25.251C383.529 38.8743 394.573 49.9181 408.196 49.9181Z" fill="#F2F2F2"/>
</g>
<path d="M344.077 172.327C116.941 167.73 0.5 273.063 0.5 273.063H650.5C650.5 273.063 571.213 176.923 344.077 172.327Z" fill="url(#paint0_linear_55_3676)"/>
<path d="M295.057 151.956V153.721C295.057 154.824 295.057 155.952 295.057 157.055C295.057 158.207 295.033 159.334 295.033 160.437C295.008 165.414 294.935 169.949 294.935 173.356C294.935 173.895 294.445 174.214 293.76 174.385C293.343 174.483 292.854 174.532 292.364 174.532C291.189 174.508 289.989 174.189 289.842 173.699C289.842 173.699 289.989 169.728 290.136 165.659C290.16 165.095 290.185 164.531 290.185 163.967C290.209 163.256 290.234 162.57 290.258 161.933C290.307 160.707 290.332 159.629 290.356 158.795C290.454 154.628 290.429 150.657 290.478 146.612V146.588C290.478 146.195 290.478 145.803 290.503 145.411C290.527 144.578 290.527 143.769 290.552 142.935C290.576 141.783 290.625 140.631 290.674 139.454C290.748 137.984 290.821 136.513 291.189 135.116C291.36 134.429 291.654 133.694 292.143 133.351C292.217 133.302 292.266 133.253 292.339 133.228C292.437 133.179 292.511 133.155 292.609 133.13C292.854 133.081 293.098 133.13 293.319 133.253C293.735 133.449 294.078 133.866 294.323 134.38C294.715 135.263 294.788 136.341 294.837 137.371C294.984 140.901 295.033 144.847 295.057 148.892V149.014C295.057 150.02 295.057 151 295.057 151.956Z" fill="#F2F2F2"/>
<path d="M292.34 146.146C291.776 146.465 291.14 146.636 290.503 146.685C290.479 146.685 290.479 146.685 290.454 146.685C289.769 146.734 289.083 146.612 288.446 146.342C287.222 145.803 286.243 144.7 285.924 143.376C285.728 142.641 285.728 141.881 285.753 141.146C285.802 139.552 285.9 137.934 286.292 136.39C286.389 135.949 286.561 135.459 286.928 135.213C287.002 135.164 287.075 135.115 287.149 135.091C287.687 134.895 288.299 135.262 288.569 135.753C288.838 136.267 288.863 136.856 288.863 137.42C288.887 138.572 288.887 139.724 288.912 140.876C288.912 141.464 288.936 142.126 289.352 142.543C289.671 142.886 290.111 142.984 290.601 142.984C290.993 142.984 291.385 142.886 291.752 142.812L292.34 146.146Z" fill="#F2F2F2"/>
<path d="M292.927 162.153L292.658 165.487C292.266 165.536 291.85 165.585 291.433 165.609C290.993 165.634 290.576 165.658 290.136 165.658C289.328 165.658 288.544 165.634 287.736 165.536C286.316 165.389 284.798 164.996 283.99 163.795C283.378 162.888 283.304 161.736 283.28 160.658C283.206 158.378 283.157 156.123 283.182 153.843C283.182 151.539 283.231 149.21 284.014 147.053C284.063 146.93 284.112 146.808 284.161 146.685C284.308 146.318 284.528 145.901 284.92 145.803C285.287 145.705 285.704 145.925 285.9 146.244C286.12 146.563 286.193 146.979 286.218 147.372C286.634 151.049 285.606 154.824 286.267 158.476C286.34 158.893 286.047 161.589 288.495 161.81C289.156 161.883 289.719 161.908 290.283 161.932C291.14 162.006 291.948 162.055 292.927 162.153Z" fill="#F2F2F2"/>
<path d="M300.665 150.019C300.567 150.582 300.42 151.171 300.126 151.685C299.293 153.058 297.481 153.426 295.89 153.646C295.62 153.695 295.351 153.72 295.082 153.745C294.69 153.794 294.298 153.794 293.931 153.769C293.294 153.72 292.682 153.573 292.192 153.181L293.392 148.964C293.613 149.038 293.833 149.087 294.053 149.112C294.396 149.136 294.739 149.063 295.082 148.94H295.106C295.669 148.744 296.159 148.352 296.526 147.886C297.237 146.954 297.481 145.729 297.53 144.528C297.579 143.351 297.481 142.15 297.628 140.973C297.702 140.385 297.849 139.797 298.216 139.355C298.24 139.331 298.24 139.306 298.265 139.282C298.657 138.816 299.342 138.546 299.905 138.792C299.979 138.816 300.052 138.865 300.126 138.914C300.64 139.282 300.811 139.993 300.909 140.63C300.983 141.096 301.032 141.537 301.081 142.003C301.301 144.675 301.179 147.371 300.665 150.019Z" fill="#F2F2F2"/>
<path d="M297.898 158.746C297.457 159.457 296.747 159.972 295.988 160.266C295.694 160.364 295.351 160.438 295.033 160.438C294.641 160.438 294.299 160.34 294.005 160.095L293.907 157.349C294.299 157.325 294.69 157.226 295.058 157.055C295.67 156.81 296.208 156.393 296.698 155.927C296.796 155.829 296.919 155.707 297.065 155.658C297.506 155.486 297.971 155.903 298.167 156.344C298.461 157.128 298.339 158.035 297.898 158.746Z" fill="#F2F2F2"/>
<path d="M292.364 174.557C291.189 174.533 289.989 174.214 289.842 173.724C289.842 173.724 289.989 169.728 290.136 165.683C289.328 165.683 288.544 165.659 287.736 165.561C286.316 165.414 284.798 165.022 283.99 163.82C283.378 162.913 283.304 161.761 283.28 160.683C283.206 158.403 283.157 156.148 283.182 153.868C283.182 151.564 283.231 149.235 284.014 147.078C284.039 147.103 284.063 147.103 284.088 147.127C285.19 148.132 284.724 149.873 284.651 151.196C284.553 153.329 284.528 155.462 284.553 157.594C284.553 158.746 284.577 159.898 284.92 161.001C285.263 162.105 285.949 163.134 286.977 163.649C287.859 164.09 288.911 164.09 289.891 164.017C289.989 164.017 290.111 163.992 290.209 163.992C290.527 163.992 290.87 164.017 291.115 164.237C291.482 164.556 291.458 165.12 291.433 165.585V165.634C291.262 168.625 291.58 171.64 292.364 174.557Z" fill="#E0E0E0"/>
<path d="M292.046 145.215C291.605 145.755 291.091 146.318 290.503 146.637C290.479 146.661 290.479 146.661 290.454 146.661C289.769 146.711 289.083 146.588 288.446 146.318C287.222 145.779 286.243 144.676 285.924 143.352C285.728 142.617 285.728 141.857 285.753 141.122C285.802 139.528 285.9 137.91 286.292 136.366C286.389 135.925 286.561 135.435 286.928 135.189C286.732 136.194 286.659 137.224 286.61 138.229C286.536 140.018 286.61 141.906 287.516 143.426C288.152 144.504 289.328 145.313 290.528 145.436C291.042 145.534 291.556 145.46 292.046 145.215Z" fill="#E0E0E0"/>
<path d="M300.665 150.019C300.567 150.583 300.42 151.172 300.126 151.686C299.293 153.059 297.481 153.427 295.89 153.647C295.62 153.696 295.351 153.721 295.082 153.745C295.082 154.849 295.082 155.976 295.082 157.055C295.694 156.81 296.233 156.393 296.722 155.927C296.82 155.829 296.943 155.706 297.09 155.657C297.53 155.486 297.996 155.903 298.191 156.344C298.51 157.104 298.387 158.035 297.947 158.746C297.506 159.457 296.796 159.972 296.037 160.266C295.743 160.364 295.4 160.437 295.082 160.437C295.057 165.414 294.984 169.948 294.984 173.356C294.984 173.895 294.494 174.214 293.808 174.385C293.588 167.522 293.784 160.634 293.955 153.745C294.004 152.201 294.029 150.632 294.078 149.088C294.127 146.931 294.176 144.774 294.176 142.617C294.2 139.503 294.151 136.317 293.368 133.326C293.784 133.547 294.127 133.939 294.347 134.429C294.739 135.312 294.812 136.39 294.861 137.42C295.008 140.95 295.057 144.896 295.082 148.941H295.106C295.106 148.99 295.082 149.039 295.082 149.063C294.861 150.019 294.739 150.951 294.788 151.931C294.886 151.956 294.984 151.956 295.082 151.956C296.282 152.03 297.457 151.368 298.24 150.461C299.097 149.456 299.563 148.181 299.954 146.931C300.444 145.313 300.86 143.671 301.056 142.004C301.301 144.676 301.179 147.372 300.665 150.019Z" fill="#E0E0E0"/>
<path d="M293.245 144.087C293.074 148.548 292.56 152.985 292.535 157.446C292.511 158.721 292.56 159.996 292.486 161.271C291.85 160.878 291.727 159.996 291.703 159.26C291.556 156.221 291.752 153.157 292.217 150.142C292.462 148.671 292.756 147.225 292.878 145.754C293.049 143.793 292.854 141.807 292.682 139.846C292.486 137.689 292.29 135.556 292.119 133.399C292.192 133.35 292.241 133.301 292.315 133.277C292.413 133.228 292.486 133.203 292.584 133.179C293.319 136.758 293.392 140.459 293.245 144.087Z" fill="#E0E0E0"/>
<path d="M299.661 145.682C299.612 145.829 299.539 145.976 299.416 146.049C299.147 146.172 298.877 145.878 298.755 145.608C298.29 144.431 298.829 143.132 298.78 141.882C298.755 141.024 298.437 140.191 298.192 139.382C298.216 139.357 298.216 139.333 298.241 139.308C298.633 138.843 299.318 138.573 299.881 138.818C299.955 138.843 300.028 138.892 300.102 138.941C300.102 141.22 300.445 143.549 299.661 145.682Z" fill="#E0E0E0"/>
<path d="M158.173 225.329C160.823 227.094 163.401 227.275 165.535 226.924C168.283 226.454 170.195 224.999 170.195 224.999C170.195 224.999 168.862 214.347 167.255 201.507L162.914 166.826C160.713 149.238 155.947 141.615 152.375 143.53C152.102 143.69 151.834 143.891 151.571 144.134C148.298 147.437 150.003 160.39 152.52 180.162C152.773 182.185 153.042 184.332 153.31 186.478L153.398 187.18C156.313 210.131 158.173 225.329 158.173 225.329Z" fill="#BDBDBD"/>
<path d="M176.358 162.459C175.797 165.674 174.515 168.812 172.298 170.851C172.108 171 171.958 171.145 171.767 171.295C169.319 173.153 166.097 173.514 163.179 172.621C160.256 171.687 157.693 169.618 155.692 167.017L158.877 165.695C161.218 166.996 164.255 168.167 166.064 166.222C166.693 165.556 167.069 164.544 167.239 163.559C168.196 158.491 165.545 153.371 165.146 148.179C165.079 147.307 165.125 146.337 165.305 145.434C165.578 143.932 166.248 142.59 167.299 141.955C167.573 141.795 167.892 141.671 168.217 141.589C168.748 141.48 169.3 141.537 169.784 141.728C171.228 142.218 172.507 143.736 173.41 145.258C176.262 150.31 177.388 156.627 176.358 162.459Z" fill="#BDBDBD"/>
<path d="M163.857 199.794C164.286 202.215 167.725 201.575 169.4 200.904C171.993 199.866 174.075 197.425 174.79 194.442C175.558 191.201 174.819 187.645 173.427 184.549C173.313 184.311 173.246 184.11 173.132 183.873C172.735 183.042 172.25 182.18 171.554 181.638C170.822 181.143 169.806 181.06 169.219 181.721C167.534 183.651 168.546 189.395 167.376 192.099C166.537 194.091 163.754 196.956 163.79 199.257C163.811 199.423 163.837 199.629 163.857 199.794Z" fill="#BDBDBD"/>
<path d="M139.079 174.506L143.055 180.172C144.432 181.132 146.246 180.57 147.344 179.3C147.452 179.161 147.602 179.016 147.705 178.836C148.766 177.277 148.993 175.739 149.033 173.721C149.13 170.145 148.655 166.011 147.679 162.569C147.463 161.841 147.107 161.005 146.473 160.958C145.668 160.891 145.266 162.032 145.21 162.92C145.123 164.23 145.164 165.567 145.371 166.883C145.578 168.199 145.769 169.727 145.852 171.058C146.064 173.422 145.44 175.135 143.641 175.486C143.6 175.491 143.518 175.502 143.435 175.512C142.157 175.672 140.409 174.423 139.079 174.506Z" fill="#F2F2F2"/>
<path d="M165.536 226.924C163.448 227.312 160.829 227.136 158.173 225.33C158.173 225.33 156.313 210.131 153.44 187.176C151.228 188.249 148.723 188.647 146.32 188.193C144.562 187.868 142.887 187.197 141.273 186.35C139.973 185.674 138.7 184.869 137.601 183.791C135.023 181.262 133.759 177.52 133 173.799C132.494 171.095 132.215 168.195 133.25 165.759C133.673 164.783 134.358 163.901 135.203 163.292C136.049 162.683 137.007 162.311 137.982 162.399C138.405 162.43 138.796 162.549 139.199 162.75C141.117 163.684 142.025 166.254 142.355 168.561C142.686 170.868 142.661 173.345 143.636 175.445C145.44 175.136 146.017 173.386 145.846 171.017C145.722 169.691 145.531 168.163 145.366 166.842C145.159 165.526 145.117 164.19 145.205 162.879C145.261 161.991 145.663 160.851 146.467 160.918C147.101 160.964 147.498 161.795 147.715 162.523C148.691 165.965 149.125 170.104 149.069 173.675C149.023 175.652 148.797 177.19 147.741 178.79C147.632 178.929 147.529 179.11 147.38 179.254C147.962 179.559 148.576 179.775 149.179 179.909C150.303 180.188 151.396 180.219 152.551 180.075C149.998 160.35 148.298 147.437 151.566 144.093C151.829 143.851 152.097 143.649 152.37 143.489C152.868 155.504 154.192 167.415 155.726 179.342C155.964 181.241 156.248 183.176 156.486 185.075C156.718 186.933 156.987 188.745 157.22 190.603C158.935 202.968 160.676 215.54 165.536 226.924Z" fill="#E0E0E0"/>
<path d="M172.252 170.815C174.473 168.818 175.751 165.639 176.317 162.465C177.347 156.633 176.262 150.311 173.327 145.269C172.466 143.741 171.187 142.224 169.697 141.698C169.872 142.095 170.048 142.493 170.223 142.89C171.807 146.508 173.313 150.177 174.17 154.012C175.027 157.846 175.245 161.928 174.256 165.742C173.849 167.512 173.138 169.195 172.252 170.815Z" fill="#E0E0E0"/>
<path d="M163.857 199.795C164.286 202.215 167.724 201.575 169.399 200.904C171.992 199.867 174.074 197.426 174.79 194.443C175.557 191.202 174.819 187.646 173.426 184.55C173.54 185.793 173.566 187.006 173.474 188.276C173.304 191.274 172.382 194.283 170.45 196.58C168.842 198.458 166.368 199.774 163.857 199.795Z" fill="#E0E0E0"/>
<path d="M162.191 198.534C161.907 195.593 161.293 192.692 161.091 189.74C160.884 186.747 159.882 181.757 159.469 178.789C158.415 171.708 158.604 166.527 157.586 159.4C157.147 156.561 156.744 153.676 156.223 150.848C155.949 149.331 155.624 147.736 154.526 146.658C154.841 149.176 155.11 151.659 155.425 154.177C155.999 159.095 156.567 163.972 156.976 168.911C157.576 176.049 157.81 183.274 158.905 190.349C159.38 193.477 160.056 196.537 160.697 199.644C160.877 200.418 161.023 203.922 162.255 203.391C163.296 203.009 162.305 199.443 162.191 198.534Z" fill="#E0E0E0"/>
<path d="M171.985 157.64C172.233 159.621 172.357 161.619 171.889 163.564C171.399 165.68 170.214 167.59 168.977 169.422C168.483 170.155 167.622 170.975 166.859 170.568C166.142 170.196 166.178 169.143 166.683 168.493C167.152 167.889 167.905 167.543 168.508 167.007C170.554 165.283 170.537 162.14 170.124 159.508C169.339 154.574 167.698 149.831 165.264 145.439C165.537 143.938 166.206 142.596 167.258 141.961C169.672 146.859 171.303 152.19 171.985 157.64Z" fill="#E0E0E0"/>
<path d="M143.715 183.779C142.819 185.653 137.893 179.099 136.732 175.512C135.448 171.605 134.967 167.43 135.203 163.291C136.048 162.682 137.007 162.31 137.981 162.398C137.719 163.647 137.508 164.973 137.421 166.284C137.195 169.835 137.861 173.484 139.743 176.477C141.255 178.846 143.529 180.951 143.715 183.779Z" fill="#BDBDBD"/>
<path d="M486 217.632C486 217.632 485.185 217.796 483.881 218.013C483.066 218.122 482.088 218.285 481.002 218.448C479.752 218.612 478.394 218.775 477.035 218.829C473.395 219.047 469.538 218.883 467.473 217.632C467.473 217.632 468.071 175.534 468.668 154.703C469.212 136.482 469.049 126.909 474.862 125.604C475.677 125.441 476.601 125.387 477.687 125.55C486.326 126.801 484.261 142.248 483.718 173.685C483.283 193.266 486 217.632 486 217.632Z" fill="#E0E0E0"/>
<path d="M473.993 176.731L469.918 185.542C468.995 185.161 468.017 184.998 466.984 184.998C464.648 184.889 462.149 185.325 460.03 184.291C459.161 183.856 458.454 183.203 457.802 182.496C454.543 179.07 452.695 174.501 451.826 169.878C450.957 165.255 450.902 149.59 450.957 144.913C450.957 142.193 451.011 139.365 452.369 137.08C452.858 136.264 453.51 135.612 454.271 135.068C455.086 134.524 456.064 134.143 456.987 134.143C457.639 134.089 458.237 134.198 458.835 134.524C458.943 134.578 459.052 134.633 459.215 134.687C460.465 135.449 461.117 136.863 461.606 138.223C462.747 141.649 462.692 145.293 462.692 148.883C462.692 151.331 462.638 161.23 462.638 166.234C462.638 167.267 462.638 168.137 462.638 168.681C462.638 169.497 462.638 170.367 462.747 171.183C462.855 171.945 463.018 172.706 463.398 173.413C464.268 175.154 466.169 176.296 468.071 176.731C469.973 177.166 471.983 177.003 473.939 176.894C473.939 176.731 473.993 176.731 473.993 176.731Z" fill="#E0E0E0"/>
<path d="M474.536 176.405C474.482 176.622 474.265 176.731 474.047 176.731L474.21 176.405C473.993 176.187 474.536 176.133 474.536 176.405Z" fill="#F2F2F2"/>
<path d="M501.81 147.632C501.104 149.209 500.126 150.732 498.822 151.874C496.269 154.05 492.791 154.702 489.477 155.192C488.554 155.301 487.63 155.464 486.652 155.573C484.261 155.79 481.871 155.79 479.589 155.083L479.1 146C480.078 147.577 482.088 147.849 484.044 147.74C484.479 147.74 484.913 147.686 485.294 147.632C487.63 147.36 490.238 146.925 491.65 145.021C492.954 143.335 492.9 140.942 492.954 138.82C493.063 136.808 493.335 134.741 493.878 132.783C494.367 130.934 495.345 128.867 497.247 128.649C497.464 128.649 497.681 128.649 497.844 128.649C499.365 128.813 500.561 130.227 501.321 131.641C501.539 132.022 501.702 132.402 501.919 132.837C503.929 137.461 503.929 143.008 501.81 147.632Z" fill="#E0E0E0"/>
<path d="M469.647 182.115C469.701 182.714 469.212 184.889 469.049 185.488C466.713 185.379 462.149 185.27 460.03 184.182C459.161 183.747 458.454 183.094 457.802 182.387C454.543 178.961 452.695 174.392 451.826 169.769C450.957 165.146 450.902 149.481 450.957 144.804C450.957 142.084 451.011 139.256 452.369 136.971C452.858 136.156 453.51 135.503 454.271 134.959C454.108 135.938 454.054 136.917 453.945 137.842C453.402 144.477 453.021 162.1 454.814 168.518C456.444 174.446 463.507 180.103 469.647 182.115Z" fill="#BDBDBD"/>
<path d="M476.981 218.829C473.341 219.047 469.484 218.884 467.419 217.578C467.419 217.578 468.017 175.48 468.614 154.649C469.158 136.428 468.995 126.855 474.808 125.55C476.601 132.403 475.134 145.076 475.08 147.143C474.917 154.159 474.754 161.121 474.536 168.137C474.21 182.17 473.83 196.257 475.623 210.181C475.949 213.118 476.438 216.001 476.981 218.829Z" fill="#BDBDBD"/>
<path d="M497.844 128.596C497.627 130.499 497.409 132.403 497.138 134.307C496.757 137.353 496.377 140.398 495.291 143.227C494.15 146.055 492.194 148.666 489.368 149.917C487.63 150.678 485.294 150.678 484.316 149.046C484.044 148.611 483.99 148.176 483.99 147.687C484.424 147.687 484.859 147.632 485.239 147.578C487.576 147.306 490.183 146.871 491.596 144.967C492.9 143.281 492.846 140.942 492.9 138.767C493.009 136.754 493.28 134.687 493.824 132.729C494.313 130.88 495.291 128.813 497.192 128.596C497.409 128.596 497.627 128.596 497.844 128.596Z" fill="#BDBDBD"/>
<path d="M483.827 218.013C483.012 218.122 482.034 218.285 480.947 218.448C480.676 215.892 480.241 213.335 479.861 210.834C477.144 193.646 476.601 176.078 478.339 158.782C478.665 155.573 479.046 152.31 480.241 149.264C481.925 151.439 481.817 154.431 481.654 157.15C480.241 177.492 479.317 198.269 483.827 218.013Z" fill="#BDBDBD"/>
<path d="M462.692 171.074C461.986 171.02 461.28 170.748 460.628 170.367C457.259 168.246 456.553 163.622 456.39 159.598C456.01 151.113 456.173 142.573 456.988 134.089C457.64 134.034 458.237 134.143 458.835 134.469C457.911 141.54 457.368 148.665 457.151 155.79C457.042 159.434 457.422 163.786 460.628 165.472C461.28 165.798 461.932 165.961 462.584 166.233C462.584 167.267 462.584 168.137 462.584 168.681C462.584 169.388 462.584 170.258 462.692 171.074Z" fill="#BDBDBD"/>
<path d="M501.81 147.632C501.104 149.209 500.126 150.732 498.822 151.875C496.268 154.05 492.791 154.703 489.477 155.192C488.553 155.301 487.63 155.464 486.652 155.573C487.63 154.975 488.771 154.648 489.857 154.268C494.801 152.364 498.387 147.795 500.18 142.791C501.375 139.528 501.538 136.264 501.919 132.838C503.929 137.461 503.929 143.009 501.81 147.632Z" fill="#BDBDBD"/>
<g clip-path="url(#clip1_55_3676)">
<path opacity="0.49" d="M490.853 219.753C490.853 221.132 478.826 222.205 463.965 222.205C449.103 222.205 437.153 221.055 437.153 219.753C437.153 218.374 449.18 217.302 464.041 217.302C478.903 217.302 490.853 218.374 490.853 219.753Z" fill="#E0E0E0"/>
<path d="M489.934 218.987C489.781 218.987 489.628 219.063 489.551 219.063C472.085 222.128 445.273 220.749 444.354 218.987C443.435 217.225 455.692 216.306 455.692 216.306C455.692 216.306 455.845 215.693 459.445 215.003C461.284 214.62 464.118 214.161 468.255 213.778C480.512 212.475 489.934 218.987 489.934 218.987Z" fill="#BDBDBD"/>
<path d="M489.934 218.987C489.781 218.987 489.628 219.064 489.551 219.064C487.1 219.14 484.572 219.14 482.121 219.064C479.822 219.064 477.524 218.987 475.379 218.451C472.928 217.838 470.63 216.536 468.102 216.229C465.114 215.77 461.82 216.612 459.445 214.927C461.284 214.544 464.118 214.084 468.255 213.701C480.512 212.476 489.934 218.987 489.934 218.987Z" fill="#F2F2F2"/>
</g>
<g clip-path="url(#clip2_55_3676)">
<path opacity="0.49" d="M176.004 229.634C180.277 229.634 183.741 228.914 183.741 228.026C183.741 227.137 180.277 226.417 176.004 226.417C171.731 226.417 168.267 227.137 168.267 228.026C168.267 228.914 171.731 229.634 176.004 229.634Z" fill="#E0E0E0"/>
<path d="M171.254 227.643C171.254 227.643 172.48 224.655 177.076 224.272C181.673 223.889 182.286 227.873 182.286 227.873C182.286 227.873 178.226 229.558 171.254 227.643Z" fill="#BDBDBD"/>
</g>
<defs>
<linearGradient id="paint0_linear_55_3676" x1="325.5" y1="172.181" x2="325.5" y2="273.063" gradientUnits="userSpaceOnUse">
<stop stop-color="#F3F3F3"/>
<stop offset="1" stop-color="#F4F4F4" stop-opacity="0"/>
</linearGradient>
<clipPath id="clip0_55_3676">
<rect width="49.2575" height="49.2575" fill="white" transform="translate(383.529 0.583984)"/>
</clipPath>
<clipPath id="clip1_55_3676">
<rect width="53.7006" height="8.65645" fill="white" transform="translate(437.153 213.548)"/>
</clipPath>
<clipPath id="clip2_55_3676">
<rect width="15.3978" height="5.43901" fill="white" transform="translate(168.267 224.272)"/>
</clipPath>
</defs>
</svg>
