<svg width="38" height="38" viewBox="0 0 38 38" fill="none" xmlns="http://www.w3.org/2000/svg">
<g opacity="0.5">
<path d="M18.9998 36.0212C9.61067 36.0212 1.979 28.3895 1.979 19.0003C1.979 9.61116 9.61067 1.97949 18.9998 1.97949C28.389 1.97949 36.0207 9.61116 36.0207 19.0003C36.0207 28.3895 28.389 36.0212 18.9998 36.0212ZM18.9998 4.35449C10.9248 4.35449 4.354 10.9253 4.354 19.0003C4.354 27.0753 10.9248 33.6462 18.9998 33.6462C27.0748 33.6462 33.6457 27.0753 33.6457 19.0003C33.6457 10.9253 27.0748 4.35449 18.9998 4.35449Z" fill="#F2F2F2"/>
<path d="M18.9998 4.35449C10.9248 4.35449 4.354 10.9253 4.354 19.0003C4.354 27.0753 10.9248 33.6462 18.9998 33.6462C27.0748 33.6462 33.6457 27.0753 33.6457 19.0003C33.6457 10.9253 27.0748 4.35449 18.9998 4.35449Z" fill="#F2F2F2"/>
</g>
<path d="M13.4945 24.8371C12.9996 24.8371 12.5372 24.6667 12.2045 24.3503C11.7826 23.9527 11.5798 23.3523 11.6528 22.7033L11.953 20.0746C12.0098 19.5797 12.31 18.9225 12.6589 18.5655L19.3198 11.5152C20.983 9.75463 22.7192 9.70595 24.4798 11.3692C26.2404 13.0324 26.2891 14.7686 24.6258 16.5292L17.9649 23.5795C17.6241 23.9446 16.9913 24.2853 16.4964 24.3666L13.8839 24.8127C13.746 24.8208 13.6243 24.8371 13.4945 24.8371ZM21.9241 11.361C21.2994 11.361 20.7558 11.7505 20.2041 12.3346L13.5432 19.3932C13.3809 19.5635 13.1943 19.9692 13.1619 20.2045L12.8617 22.8331C12.8292 23.1008 12.8941 23.3199 13.0402 23.4578C13.1862 23.5957 13.4053 23.6444 13.673 23.6038L16.2855 23.1577C16.5207 23.1171 16.9102 22.9061 17.0724 22.7357L23.7334 15.6854C24.7394 14.6144 25.1045 13.6246 23.636 12.2454C22.987 11.6207 22.4272 11.361 21.9241 11.361Z" fill="#333333"/>
<path d="M23.0684 17.8839C23.0522 17.8839 23.0278 17.8839 23.0116 17.8839C20.4803 17.6324 18.4439 15.7096 18.0544 13.1945C18.0057 12.8619 18.2329 12.5536 18.5655 12.4968C18.8982 12.4481 19.2065 12.6753 19.2633 13.0079C19.5716 14.9713 21.1618 16.4804 23.1414 16.6751C23.474 16.7076 23.7174 17.0077 23.685 17.3403C23.6444 17.6486 23.3767 17.8839 23.0684 17.8839Z" fill="#333333"/>
<path d="M26.0379 27.4572H11.4342C11.1015 27.4572 10.8257 27.1814 10.8257 26.8487C10.8257 26.5161 11.1015 26.2402 11.4342 26.2402H26.0379C26.3706 26.2402 26.6464 26.5161 26.6464 26.8487C26.6464 27.1814 26.3706 27.4572 26.0379 27.4572Z" fill="#333333"/>
</svg>
