<svg width="12" height="12" viewBox="0 0 12 12" fill="none" xmlns="http://www.w3.org/2000/svg">
<path fill-rule="evenodd" clip-rule="evenodd" d="M11.058 6.5926C11.4173 6.5926 11.7085 6.29744 11.7085 5.93334C11.7085 5.56924 11.4173 5.27408 11.058 5.27408L6.50474 5.27408L6.50474 0.65926C6.50474 0.295161 6.21351 -2.40193e-07 5.85427 -2.55897e-07C5.49502 -2.716e-07 5.2038 0.295161 5.2038 0.65926L5.2038 5.27408L0.650507 5.27408C0.291262 5.27408 3.59962e-05 5.56924 3.59803e-05 5.93334C3.59644e-05 6.29744 0.291262 6.5926 0.650507 6.5926L5.2038 6.5926L5.2038 11.2074C5.2038 11.5715 5.49502 11.8667 5.85427 11.8667C6.21351 11.8667 6.50474 11.5715 6.50474 11.2074L6.50474 6.5926L11.058 6.5926Z" fill="white"/>
</svg>
