<svg width="12" height="18" viewBox="0 0 12 18" fill="none" xmlns="http://www.w3.org/2000/svg">
<rect x="0.5" y="0.5" width="11" height="17" rx="2.5" fill="#333333" stroke="#333333"/>
<path fill-rule="evenodd" clip-rule="evenodd" d="M4.5 5.08496C4.5 4.80882 4.27614 4.58496 4 4.58496C3.72386 4.58496 3.5 4.80882 3.5 5.08496V12.911C3.5 13.1872 3.72386 13.411 4 13.411C4.27614 13.411 4.5 13.1872 4.5 12.911V5.08496ZM8.5 5.08496C8.5 4.80882 8.27614 4.58496 8 4.58496C7.72386 4.58496 7.5 4.80882 7.5 5.08496V12.911C7.5 13.1872 7.72386 13.411 8 13.411C8.27614 13.411 8.5 13.1872 8.5 12.911V5.08496Z" fill="#4F4F4F"/>
</svg>
