<svg width="25" height="25" viewBox="0 0 25 25" fill="none" xmlns="http://www.w3.org/2000/svg">
<circle cx="12.0635" cy="12.8457" r="12" transform="rotate(-180 12.0635 12.8457)" fill="#2B2B2B"/>
<path fill-rule="evenodd" clip-rule="evenodd" d="M15.4106 16.9371C15.6646 17.1911 16.0793 17.1883 16.3367 16.9309C16.5942 16.6734 16.597 16.2588 16.3429 16.0047L13.1233 12.7851L16.3864 9.5219C16.6439 9.26445 16.6467 8.84981 16.3927 8.59579C16.1386 8.34176 15.724 8.34454 15.4665 8.602L12.2034 11.8652L8.98371 8.64551C8.72969 8.39149 8.31505 8.39427 8.05759 8.65173C7.80013 8.90918 7.79735 9.32382 8.05137 9.57784L11.271 12.7975L8.00787 16.0607C7.75041 16.3181 7.74762 16.7328 8.00165 16.9868C8.25567 17.2408 8.67031 17.238 8.92777 16.9806L12.1909 13.7174L15.4106 16.9371Z" fill="white"/>
</svg>
