<svg width="27" height="26" viewBox="0 0 27 26" fill="none" xmlns="http://www.w3.org/2000/svg">
<path d="M19.3433 24.5579C18.7628 24.5579 18.0181 24.3737 17.0872 23.8321L13.8126 21.9147C13.4731 21.7197 12.816 21.7197 12.4874 21.9147L9.20184 23.8321C7.26335 24.9695 6.12436 24.5146 5.60962 24.1462C5.10583 23.7779 4.31729 22.8355 4.83203 20.6689L5.60962 17.3432C5.69723 16.9965 5.522 16.4007 5.25915 16.1407L2.54308 13.4542C1.18504 12.1109 1.29456 10.9626 1.48074 10.3993C1.66692 9.83599 2.25833 8.83937 4.14206 8.52521L7.63572 7.95107C7.96428 7.89691 8.43521 7.55026 8.57759 7.25777L10.5161 3.43377C11.3922 1.68968 12.5422 1.42969 13.1445 1.42969C13.7469 1.42969 14.8968 1.68968 15.773 3.43377L17.7005 7.24694C17.8538 7.53942 18.3248 7.88607 18.6533 7.94024L22.147 8.51438C24.0417 8.82853 24.6331 9.82516 24.8083 10.3885C24.9835 10.9518 25.0931 12.1001 23.746 13.4434L21.0299 16.1407C20.767 16.4007 20.6028 16.9857 20.6794 17.3432L21.457 20.6689C21.9608 22.8355 21.1832 23.7779 20.6794 24.1462C20.4056 24.3412 19.9676 24.5579 19.3433 24.5579ZM13.1445 20.1381C13.6812 20.1381 14.2178 20.2681 14.6449 20.5172L17.9196 22.4346C18.8724 22.998 19.4747 22.998 19.7047 22.8355C19.9347 22.673 20.099 22.0988 19.858 21.0372L19.0805 17.7115C18.8724 16.8124 19.2119 15.6533 19.869 14.9925L22.5851 12.3059C23.1217 11.7751 23.3627 11.2551 23.2531 10.8976C23.1327 10.5401 22.6289 10.2476 21.8841 10.1285L18.3905 9.55434C17.5472 9.41351 16.6272 8.74187 16.2439 7.98357L14.3164 4.1704C13.9659 3.4771 13.5278 3.06545 13.1445 3.06545C12.7612 3.06545 12.3231 3.4771 11.9836 4.1704L10.0451 7.98357C9.66183 8.74187 8.74186 9.41351 7.89857 9.55434L4.41586 10.1285C3.67113 10.2476 3.16734 10.5401 3.04687 10.8976C2.9264 11.2551 3.17829 11.7859 3.71493 12.3059L6.43101 14.9925C7.08812 15.6424 7.42763 16.8124 7.21955 17.7115L6.44196 21.0372C6.19007 22.1097 6.3653 22.673 6.59529 22.8355C6.82528 22.998 7.41668 22.9871 8.38045 22.4346L11.6551 20.5172C12.0712 20.2681 12.6079 20.1381 13.1445 20.1381Z" fill="#F2C94C"/>
<path d="M13.1445 20.1381C13.6812 20.1381 14.2178 20.2681 14.6449 20.5172L17.9196 22.4346C18.8724 22.998 19.4747 22.998 19.7047 22.8355C19.9347 22.673 20.099 22.0988 19.858 21.0372L19.0805 17.7115C18.8724 16.8124 19.2119 15.6533 19.869 14.9925L22.5851 12.3059C23.1217 11.7751 23.3627 11.2551 23.2531 10.8976C23.1327 10.5401 22.6289 10.2476 21.8841 10.1285L18.3905 9.55434C17.5472 9.41351 16.6272 8.74187 16.2439 7.98357L14.3164 4.1704C13.9659 3.4771 13.5278 3.06545 13.1445 3.06545C12.7612 3.06545 12.3231 3.4771 11.9836 4.1704L10.0451 7.98357C9.66183 8.74187 8.74186 9.41351 7.89857 9.55434L4.41586 10.1285C3.67113 10.2476 3.16734 10.5401 3.04687 10.8976C2.9264 11.2551 3.17829 11.7859 3.71493 12.3059L6.43101 14.9925C7.08812 15.6424 7.42763 16.8124 7.21955 17.7115L6.44196 21.0372C6.19007 22.1097 6.3653 22.673 6.59529 22.8355C6.82528 22.998 7.41668 22.9871 8.38045 22.4346L11.6551 20.5172C12.0712 20.2681 12.6079 20.1381 13.1445 20.1381Z" fill="#F2C94C"/>
</svg>
