<svg width="20" height="20" viewBox="0 0 20 20" fill="none" xmlns="http://www.w3.org/2000/svg">
<path d="M14.7166 18.7379C14.2749 18.7379 13.7083 18.5973 12.9999 18.1841L10.5083 16.7211C10.2499 16.5723 9.74992 16.5723 9.49992 16.7211L6.99994 18.1841C5.52494 19.052 4.65827 18.7048 4.2666 18.4238C3.88327 18.1427 3.28327 17.4236 3.67494 15.7705L4.2666 13.233C4.33327 12.9685 4.19994 12.5139 3.99994 12.3155L1.93327 10.2656C0.899936 9.24071 0.983269 8.36456 1.12494 7.93472C1.2666 7.50491 1.7166 6.74448 3.14994 6.50478L5.80827 6.0667C6.05827 6.02537 6.4166 5.76087 6.52494 5.5377L7.99994 2.61995C8.66658 1.28919 9.54159 1.09082 9.99992 1.09082C10.4583 1.09082 11.3333 1.28919 11.9999 2.61995L13.4666 5.52944C13.5833 5.75261 13.9416 6.01711 14.1916 6.05844L16.8499 6.49651C18.2916 6.73621 18.7416 7.49665 18.8749 7.92646C19.0083 8.35629 19.0916 9.23244 18.0666 10.2574L15.9999 12.3155C15.7999 12.5139 15.6749 12.9602 15.7333 13.233L16.3249 15.7705C16.7083 17.4236 16.1166 18.1427 15.7333 18.4238C15.5249 18.5726 15.1916 18.7379 14.7166 18.7379ZM9.99992 15.3655C10.4083 15.3655 10.8166 15.4647 11.1416 15.6548L13.6333 17.1178C14.3583 17.5476 14.8166 17.5476 14.9916 17.4236C15.1666 17.2997 15.2916 16.8616 15.1083 16.0515L14.5166 13.514C14.3583 12.828 14.6166 11.9436 15.1166 11.4394L17.1833 9.38949C17.5916 8.98448 17.7749 8.58773 17.6916 8.31496C17.5999 8.04217 17.2166 7.819 16.6499 7.72808L13.9916 7.29001C13.3499 7.18256 12.6499 6.67009 12.3583 6.0915L10.8916 3.18201C10.6249 2.65302 10.2916 2.33892 9.99992 2.33892C9.70825 2.33892 9.37492 2.65302 9.11658 3.18201L7.6416 6.0915C7.34994 6.67009 6.64994 7.18256 6.00827 7.29001L3.35827 7.72808C2.7916 7.819 2.40827 8.04217 2.3166 8.31496C2.22494 8.58773 2.4166 8.99274 2.82494 9.38949L4.8916 11.4394C5.3916 11.9353 5.64993 12.828 5.4916 13.514L4.89994 16.0515C4.70827 16.8698 4.8416 17.2997 5.0166 17.4236C5.1916 17.5476 5.6416 17.5394 6.37494 17.1178L8.86659 15.6548C9.18325 15.4647 9.59159 15.3655 9.99992 15.3655Z" fill="#E0E0E0"/>
</svg>
