<svg width="20" height="20" viewBox="0 0 20 20" fill="none" xmlns="http://www.w3.org/2000/svg">
<path d="M12.5003 18.9587H7.50033C2.97533 18.9587 1.04199 17.0253 1.04199 12.5003V7.50033C1.04199 2.97533 2.97533 1.04199 7.50033 1.04199H12.5003C17.0253 1.04199 18.9587 2.97533 18.9587 7.50033V12.5003C18.9587 17.0253 17.0253 18.9587 12.5003 18.9587ZM7.50033 2.29199C3.65866 2.29199 2.29199 3.65866 2.29199 7.50033V12.5003C2.29199 16.342 3.65866 17.7087 7.50033 17.7087H12.5003C16.342 17.7087 17.7087 16.342 17.7087 12.5003V7.50033C17.7087 3.65866 16.342 2.29199 12.5003 2.29199H7.50033Z" fill="#292D32"/>
<path d="M6.45592 12.9165C6.29759 12.9165 6.13926 12.8582 6.01426 12.7332C5.77259 12.4915 5.77259 12.0915 6.01426 11.8499L8.6809 9.1832C8.81423 9.04987 8.98923 8.9832 9.1809 8.99987C9.36423 9.01654 9.5309 9.11654 9.63923 9.27487L10.5476 10.6415L13.5059 7.6832C13.7476 7.44154 14.1476 7.44154 14.3892 7.6832C14.6309 7.92487 14.6309 8.32487 14.3892 8.56654L10.8892 12.0665C10.7559 12.1999 10.5809 12.2665 10.3892 12.2499C10.2059 12.2332 10.0392 12.1332 9.9309 11.9749L9.02257 10.6082L6.89759 12.7332C6.77259 12.8582 6.61426 12.9165 6.45592 12.9165Z" fill="#292D32"/>
</svg>
