<svg width="20" height="20" viewBox="0 0 20 20" fill="none" xmlns="http://www.w3.org/2000/svg">
<path d="M9.99942 18.967C8.76609 18.967 7.52441 18.5003 6.55775 17.5753C4.09941 15.2087 1.38275 11.4337 2.40775 6.94199C3.33275 2.86699 6.89108 1.04199 9.99942 1.04199C9.99942 1.04199 9.99942 1.04199 10.0078 1.04199C13.1161 1.04199 16.6744 2.86699 17.5994 6.95033C18.6161 11.442 15.8994 15.2087 13.4411 17.5753C12.4744 18.5003 11.2328 18.967 9.99942 18.967ZM9.99942 2.29199C7.57441 2.29199 4.45775 3.58366 3.63275 7.21699C2.73275 11.142 5.19941 14.5253 7.43275 16.667C8.87442 18.0587 11.1328 18.0587 12.5744 16.667C14.7994 14.5253 17.2661 11.142 16.3828 7.21699C15.5494 3.58366 12.4244 2.29199 9.99942 2.29199Z" fill="#333333"/>
<path d="M10.0004 11.8078C8.22539 11.8078 6.77539 10.3662 6.77539 8.58284C6.77539 6.79954 8.22539 5.36621 10.0004 5.36621C11.7754 5.36621 13.2254 6.80788 13.2254 8.59118C13.2254 10.3745 11.7754 11.8078 10.0004 11.8078ZM10.0004 6.61621C8.91709 6.61621 8.02539 7.49954 8.02539 8.59118C8.02539 9.68284 8.90876 10.5662 10.0004 10.5662C11.0921 10.5662 11.9754 9.68284 11.9754 8.59118C11.9754 7.49954 11.0838 6.61621 10.0004 6.61621Z" fill="#333333"/>
</svg>
