<svg width="20" height="20" viewBox="0 0 20 20" fill="none" xmlns="http://www.w3.org/2000/svg">
<path d="M9.99991 18.967C8.76658 18.967 7.5249 18.5003 6.55824 17.5753C4.0999 15.2087 1.38324 11.4337 2.40824 6.94199C3.33324 2.86699 6.89157 1.04199 9.99991 1.04199C9.99991 1.04199 9.99991 1.04199 10.0082 1.04199C13.1166 1.04199 16.6749 2.86699 17.5999 6.95033C18.6166 11.442 15.8999 15.2087 13.4416 17.5753C12.4749 18.5003 11.2332 18.967 9.99991 18.967ZM9.99991 2.29199C7.5749 2.29199 4.45824 3.58366 3.63324 7.21699C2.73324 11.142 5.1999 14.5253 7.43324 16.667C8.87491 18.0587 11.1332 18.0587 12.5749 16.667C14.7999 14.5253 17.2666 11.142 16.3832 7.21699C15.5499 3.58366 12.4249 2.29199 9.99991 2.29199Z" fill="#333333"/>
<path d="M9.99991 2.29199C7.5749 2.29199 4.45824 3.58366 3.63324 7.21699C2.73324 11.142 5.1999 14.5253 7.43324 16.667C8.87491 18.0587 11.1332 18.0587 12.5749 16.667C14.7999 14.5253 17.2666 11.142 16.3832 7.21699C15.5499 3.58366 12.4249 2.29199 9.99991 2.29199Z" fill="#333333"/>
<path d="M10.0009 11.8078C8.22588 11.8078 6.77588 10.3662 6.77588 8.58284C6.77588 6.79954 8.22588 5.36621 10.0009 5.36621C11.7759 5.36621 13.2259 6.80788 13.2259 8.59118C13.2259 10.3745 11.7759 11.8078 10.0009 11.8078ZM10.0009 6.61621C8.91758 6.61621 8.02588 7.49954 8.02588 8.59118C8.02588 9.68284 8.90925 10.5662 10.0009 10.5662C11.0926 10.5662 11.9759 9.68284 11.9759 8.59118C11.9759 7.49954 11.0842 6.61621 10.0009 6.61621Z" fill="white"/>
<path d="M10.0009 6.61621C8.91758 6.61621 8.02588 7.49954 8.02588 8.59118C8.02588 9.68284 8.90925 10.5662 10.0009 10.5662C11.0926 10.5662 11.9759 9.68284 11.9759 8.59118C11.9759 7.49954 11.0842 6.61621 10.0009 6.61621Z" fill="white"/>
</svg>
