<svg width="21" height="20" viewBox="0 0 21 20" fill="none" xmlns="http://www.w3.org/2000/svg">
<path d="M14.536 12.8085C14.3777 12.8085 14.2193 12.7502 14.0943 12.6252C13.8527 12.3835 13.8527 11.9835 14.0943 11.7418L15.786 10.0502L14.0943 8.35849C13.8527 8.11686 13.8527 7.71686 14.0943 7.4752C14.336 7.23353 14.736 7.23353 14.9777 7.4752L17.111 9.60849C17.3527 9.85016 17.3527 10.2502 17.111 10.4918L14.9777 12.6252C14.8527 12.7502 14.6943 12.8085 14.536 12.8085Z" fill="#333333"/>
<path d="M16.6098 10.6748H8.13477C7.7931 10.6748 7.50977 10.3915 7.50977 10.0498C7.50977 9.70814 7.7931 9.4248 8.13477 9.4248H16.6098C16.9515 9.4248 17.2348 9.70814 17.2348 10.0498C17.2348 10.3915 16.9515 10.6748 16.6098 10.6748Z" fill="#333333"/>
<path d="M9.80146 17.2913C5.50977 17.2913 2.50977 14.2913 2.50977 9.99967C2.50977 5.70801 5.50977 2.70801 9.80146 2.70801C10.1431 2.70801 10.4265 2.99134 10.4265 3.33301C10.4265 3.67467 10.1431 3.95801 9.80146 3.95801C6.2431 3.95801 3.75977 6.44134 3.75977 9.99967C3.75977 13.558 6.2431 16.0413 9.80146 16.0413C10.1431 16.0413 10.4265 16.3247 10.4265 16.6663C10.4265 17.008 10.1431 17.2913 9.80146 17.2913Z" fill="#333333"/>
</svg>
