<svg width="20" height="20" viewBox="0 0 20 20" fill="none" xmlns="http://www.w3.org/2000/svg">
<path d="M10.0005 18.9587C9.26717 18.9587 8.54217 18.8003 7.96718 18.4837L3.51718 16.0087C2.30885 15.342 1.36719 13.7337 1.36719 12.3503V7.64198C1.36719 6.25864 2.30885 4.65868 3.51718 3.98368L7.96718 1.51699C9.10884 0.883659 10.8922 0.883659 12.0338 1.51699L16.4838 3.99197C17.6922 4.65863 18.6338 6.26698 18.6338 7.65032V12.3587C18.6338 13.742 17.6922 15.342 16.4838 16.017L12.0338 18.4837C11.4588 18.8003 10.7338 18.9587 10.0005 18.9587ZM10.0005 2.29198C9.4755 2.29198 8.95884 2.40033 8.5755 2.60866L4.12552 5.08363C3.32552 5.53363 2.61719 6.72532 2.61719 7.65032V12.3587C2.61719 13.2753 3.32552 14.4753 4.12552 14.9253L8.5755 17.4003C9.33384 17.8253 10.6672 17.8253 11.4255 17.4003L15.8755 14.9253C16.6755 14.4753 17.3838 13.2837 17.3838 12.3587V7.65032C17.3838 6.73365 16.6755 5.53363 15.8755 5.08363L11.4255 2.60866C11.0422 2.40033 10.5255 2.29198 10.0005 2.29198Z" fill="#333333"/>
<path d="M10.0005 2.29198C9.4755 2.29198 8.95884 2.40033 8.5755 2.60866L4.12552 5.08363C3.32552 5.53363 2.61719 6.72532 2.61719 7.65032V12.3587C2.61719 13.2753 3.32552 14.4753 4.12552 14.9253L8.5755 17.4003C9.33384 17.8253 10.6672 17.8253 11.4255 17.4003L15.8755 14.9253C16.6755 14.4753 17.3838 13.2837 17.3838 12.3587V7.65032C17.3838 6.73365 16.6755 5.53363 15.8755 5.08363L11.4255 2.60866C11.0422 2.40033 10.5255 2.29198 10.0005 2.29198Z" fill="#333333"/>
<path d="M9.9996 11.0834C9.89126 11.0834 9.78293 11.0584 9.68293 11L1.27883 6.12893C0.978831 5.95393 1.23883 5.76749 1.41383 5.46749C1.58883 5.16749 1.79147 4.88827 2.09981 5.06327L9.9996 9.73336L17.9998 5.0001C18.2998 4.8251 18.3248 5.20865 18.4998 5.50031C18.6748 5.80031 18.9664 5.91012 18.6747 6.08512L10.3246 11C10.2163 11.05 10.1079 11.0834 9.9996 11.0834Z" fill="white"/>
<path d="M10.1045 19.2234C9.76285 19.2234 9.375 19.3298 9.375 18.9882V10.4502C9.375 10.1085 9.65833 9.8252 10 9.8252C10.3417 9.8252 10.625 10.1085 10.625 10.4502V18.9882C10.625 19.3298 10.4462 19.2234 10.1045 19.2234Z" fill="white"/>
<path d="M14.1677 11.6583C13.826 11.6583 13.5427 11.375 13.5427 11.0333V8.3501L4.84417 3.30834C4.54417 3.13334 4.99115 3.11472 5.16615 2.82305C5.34115 2.52305 5.64266 2.36218 5.94266 2.53718L14.476 7.45841C14.6677 7.56674 14.7927 7.77504 14.7927 8.00004V11.0501C14.7927 11.3751 14.5094 11.6583 14.1677 11.6583Z" fill="white"/>
</svg>
