<svg width="20" height="20" viewBox="0 0 20 20" fill="none" xmlns="http://www.w3.org/2000/svg">
<path d="M9.99983 11.0834C9.8915 11.0834 9.78316 11.0584 9.68316 11.0001L2.3248 6.74175C2.0248 6.56675 1.92478 6.18339 2.09978 5.88339C2.27478 5.58339 2.64978 5.48337 2.95811 5.65837L9.99983 9.73341L16.9997 5.6834C17.2997 5.5084 17.6831 5.61675 17.8581 5.90841C18.0331 6.20841 17.9248 6.59172 17.6332 6.76672L10.3248 11.0001C10.2165 11.0501 10.1082 11.0834 9.99983 11.0834Z" fill="#333333"/>
<path d="M10 18.6335C9.65833 18.6335 9.375 18.3502 9.375 18.0085V10.4502C9.375 10.1085 9.65833 9.8252 10 9.8252C10.3417 9.8252 10.625 10.1085 10.625 10.4502V18.0085C10.625 18.3502 10.3417 18.6335 10 18.6335Z" fill="#333333"/>
<path d="M10.0005 18.9587C9.26717 18.9587 8.54217 18.8003 7.96718 18.4837L3.51718 16.0087C2.30885 15.342 1.36719 13.7337 1.36719 12.3503V7.64198C1.36719 6.25864 2.30885 4.65868 3.51718 3.98368L7.96718 1.51699C9.10884 0.883659 10.8922 0.883659 12.0338 1.51699L16.4838 3.99197C17.6922 4.65863 18.6338 6.26698 18.6338 7.65032V12.3587C18.6338 13.742 17.6922 15.342 16.4838 16.017L12.0338 18.4837C11.4588 18.8003 10.7338 18.9587 10.0005 18.9587ZM10.0005 2.29198C9.4755 2.29198 8.95884 2.40033 8.5755 2.60866L4.12552 5.08363C3.32552 5.53363 2.61719 6.72532 2.61719 7.65032V12.3587C2.61719 13.2753 3.32552 14.4753 4.12552 14.9253L8.5755 17.4003C9.33384 17.8253 10.6672 17.8253 11.4255 17.4003L15.8755 14.9253C16.6755 14.4753 17.3838 13.2837 17.3838 12.3587V7.65032C17.3838 6.73365 16.6755 5.53363 15.8755 5.08363L11.4255 2.60866C11.0422 2.40033 10.5255 2.29198 10.0005 2.29198Z" fill="#333333"/>
<path d="M14.168 11.6584C13.8263 11.6584 13.543 11.3751 13.543 11.0334V8.35016L5.94296 3.9668C5.64296 3.7918 5.54294 3.40845 5.71794 3.11679C5.89294 2.81679 6.26796 2.71677 6.56796 2.89177L14.4763 7.45847C14.668 7.5668 14.793 7.7751 14.793 8.0001V11.0502C14.793 11.3752 14.5097 11.6584 14.168 11.6584Z" fill="#333333"/>
</svg>
