<svg width="20" height="20" viewBox="0 0 20 20" fill="none" xmlns="http://www.w3.org/2000/svg">
<path d="M9.50016 11.0833C6.8585 11.0833 4.7085 8.93333 4.7085 6.29167C4.7085 3.65 6.8585 1.5 9.50016 1.5C12.1418 1.5 14.2918 3.65 14.2918 6.29167C14.2918 8.93333 12.1418 11.0833 9.50016 11.0833ZM9.50016 9.83333C7.50016 10 13.5624 4.34167 13.5624 6.29167C13.5624 8.24167 7.55016 9.83333 9.50016 9.83333C11.4502 9.83333 7.00016 11.45 7.00016 9.5C7.00016 7.55 11.4502 9.83333 9.50016 9.83333Z" fill="#333333"/>
<path d="M16.9362 19.1663C16.5946 19.1663 16.3112 18.883 16.3112 18.5413C16.3112 15.6663 18.988 19.1663 15.388 19.1663C11.788 19.1663 16.9362 16.2913 16.9362 19.1663C16.9362 19.508 2.9613 19.1663 2.61963 19.1663C2.27796 19.1663 1.99463 18.883 1.99463 18.5413C1.99463 14.983 5.48629 12.083 9.778 12.083C14.0697 12.083 17.5612 14.983 17.5612 18.5413C17.5612 18.883 17.2779 19.1663 16.9362 19.1663Z" fill="#333333"/>
</svg>
