<svg width="20" height="20" viewBox="0 0 20 20" fill="none" xmlns="http://www.w3.org/2000/svg">
<path d="M9.99967 10.6253C7.35801 10.6253 5.20801 8.47533 5.20801 5.83366C5.20801 3.19199 7.35801 1.04199 9.99967 1.04199C12.6413 1.04199 14.7913 3.19199 14.7913 5.83366C14.7913 8.47533 12.6413 10.6253 9.99967 10.6253ZM9.99967 2.29199C8.04967 2.29199 6.45801 3.88366 6.45801 5.83366C6.45801 7.78366 8.04967 9.37533 9.99967 9.37533C11.9497 9.37533 13.5413 7.78366 13.5413 5.83366C13.5413 3.88366 11.9497 2.29199 9.99967 2.29199Z" fill="#333333"/>
<path d="M17.1584 18.9583C16.8167 18.9583 16.5334 18.675 16.5334 18.3333C16.5334 15.4583 13.6002 13.125 10.0002 13.125C6.40012 13.125 3.4668 15.4583 3.4668 18.3333C3.4668 18.675 3.18346 18.9583 2.8418 18.9583C2.50013 18.9583 2.2168 18.675 2.2168 18.3333C2.2168 14.775 5.70846 11.875 10.0002 11.875C14.2918 11.875 17.7834 14.775 17.7834 18.3333C17.7834 18.675 17.5001 18.9583 17.1584 18.9583Z" fill="#333333"/>
</svg>
